# xmcd
#
# Track frame offsets:
#	150
#	14279
#	44616
#	76925
#	110656
#	148500
#	186311
#	218136
#	249961
#
# Disc length: 3755 seconds
#
# Revision: 0
# Processed by: cddbd v1.5.2PL0 Copyright (c) Steve Scherf et al.
# Submitted via: EasyCDDAExtractor 11.5.3.1
#
DISCID=790ea909
DTITLE=DJ Spoke - Watch Then Fall Down (BIG STAR PROMO CDR)
DYEAR=2007
DGENRE=Trance
TTITLE0=Watch Them Fall Down (Radio Mix)
TTITLE1=Watch Them Fall Down (Original Vocal Mix)
TTITLE2=Watch Them Fall Down (Original Dub)
TTITLE3=Watch Them Fall Down (Ali Wilson Tekelec Remix)
TTITLE4=Watch Them Fall Down (Montano Remix)
TTITLE5=Watch Them Fall Down (Montano Dub)
TTITLE6=Watch Them Fall Down (DJ Choose Dub)
TTITLE7=Watch Them Fall Down (DJ Choose Instrumental)
TTITLE8=Watch Them Fall Down (DJ Choose Remix)
EXTD=
EXTT0=
EXTT1=
EXTT2=
EXTT3=
EXTT4=
EXTT5=
EXTT6=
EXTT7=
EXTT8=
PLAYORDER=
